<?xml version="1.0" encoding="UTF-8"?>
<svg version="1.1" viewBox="200 200 800 800" xmlns="http://www.w3.org/2000/svg">
  <style>
    #favicon-g {
      fill: rgb(138, 119, 237);
    }

    @media (prefers-color-scheme: dark) {
      #favicon-g {
        fill: rgb(128, 255, 234);
      }
    }
  </style>
  <g id="favicon-g">
    <path
      d="m837.96 833.52c-18.109 19.391-43.43 30.422-69.961 30.48h-336c-26.531-0.058594-51.852-11.09-69.961-30.48-23.547 12.195-49.684 18.531-76.199 18.48-9.1719-0.050781-18.32-0.85547-27.359-2.3984 15.477 32.961 40.008 60.844 70.73 80.391 30.723 19.547 66.375 29.957 102.79 30.008h336c36.414-0.050781 72.066-10.461 102.79-30.008 30.723-19.547 55.254-47.43 70.73-80.391-9.0391 1.543-18.188 2.3477-27.359 2.3984-26.516 0.050781-52.652-6.2852-76.199-18.48z" />
    <path
      d="m768 240h-336c-50.922 0-99.758 20.227-135.77 56.234s-56.234 84.844-56.234 135.77v97.32c31.324-8.4023 63.57-12.879 96-13.32v-84c0-25.461 10.113-49.879 28.117-67.883 18.004-18.004 42.422-28.117 67.883-28.117h336c25.461 0 49.879 10.113 67.883 28.117 18.004 18.004 28.117 42.422 28.117 67.883v84c32.418 0.36328 64.664 4.7578 96 13.078v-97.078c0-33.703-8.8711-66.812-25.723-96-16.852-29.188-41.09-53.426-70.277-70.277-29.188-16.852-62.297-25.723-96-25.723z" />
    <path
      d="m517.32 624c-8.6289 14.531-13.227 31.102-13.32 48 0 34.297 18.297 65.988 48 83.137 29.703 17.152 66.297 17.152 96 0 29.703-17.148 48-48.84 48-83.137-0.09375-16.898-4.6914-33.469-13.32-48z" />
    <path d="m516 528c0 26.508-21.492 48-48 48s-48-21.492-48-48 21.492-48 48-48 48 21.492 48 48" />
    <path d="m780 528c0 26.508-21.492 48-48 48s-48-21.492-48-48 21.492-48 48-48 48 21.492 48 48" />
    <path
      d="m963.6 735.48c13.129-13.102 20.512-30.891 20.512-49.441 0-18.551-7.3828-36.336-20.512-49.438-22.922-22.801-94.68-24.602-116.88-24.602h-6.7188s-2.6406 96 24.719 123.48c13.102 13.133 30.891 20.512 49.441 20.512 18.551 0 36.336-7.3789 49.441-20.512z" />
    <path
      d="m236.4 636.72c-17.66 17.664-24.559 43.41-18.094 67.539 6.4648 24.125 25.312 42.973 49.438 49.438 24.129 6.4648 49.875-0.43359 67.539-18.094 27.238-27.602 24.719-123.6 24.719-123.6h-6.6016c-22.32 0-93.957 1.8008-117 24.719z" />
  </g>
</svg>
