<?xml version="1.0" encoding="UTF-8"?>
<svg version="1.1" viewBox="0 0 1200 1200" xmlns="http://www.w3.org/2000/svg">
  <g>
    <path
      d="m960 348c0-28.645-11.379-56.113-31.633-76.367-20.254-20.254-47.723-31.633-76.367-31.633h-504c-28.645 0-56.113 11.379-76.367 31.633-20.254 20.254-31.633 47.723-31.633 76.367v504c0 28.645 11.379 56.113 31.633 76.367 20.254 20.254 47.723 31.633 76.367 31.633h504c28.645 0 56.113-11.379 76.367-31.633 20.254-20.254 31.633-47.723 31.633-76.367zm-72 504c0 9.5469-3.793 18.703-10.543 25.457-6.7539 6.75-15.91 10.543-25.457 10.543h-504c-9.5469 0-18.703-3.793-25.457-10.543-6.75-6.7539-10.543-15.91-10.543-25.457v-504c0-9.5469 3.793-18.703 10.543-25.457 6.7539-6.75 15.91-10.543 25.457-10.543h504c9.5469 0 18.703 3.793 25.457 10.543 6.75 6.7539 10.543 15.91 10.543 25.457z" />
    <path
      d="m552 645.12-96-96-50.879 50.879 121.44 121.44c6.75 6.7383 15.902 10.527 25.441 10.527s18.691-3.7891 25.441-10.527l217.44-217.44-50.879-50.879z" />
  </g>
</svg>
