<?xml version="1.0" encoding="UTF-8"?>
<svg version="1.1" viewBox="0 0 1200 1200" xmlns="http://www.w3.org/2000/svg">
  <path
    d="m417.96 14.652h728.18c21.672 0 39.203 17.566 39.203 39.203v728.18c0 21.672-17.566 39.203-39.203 39.203h-324.87v324.87c0 21.672-17.566 39.203-39.203 39.203h-728.18c-21.672 0-39.203-17.566-39.203-39.203v-728.18c0-21.672 17.566-39.203 39.203-39.203h324.87v-324.87c0-21.672 17.566-39.203 39.203-39.203zm324.87 806.62h-324.87c-21.672 0-39.203-17.566-39.203-39.203v-324.87h-285.66v649.73h649.73zm364.07-728.18h-649.73v649.73h649.73z" />
</svg>
