<?xml version="1.0" encoding="UTF-8"?>
<svg version="1.1" viewBox="0 0 1200 1200" xmlns="http://www.w3.org/2000/svg">
  <path
    d="m387.93 100h112.07c27.613 0 50 22.387 50 50s-22.387 50-50 50h-110c-42.828 0-71.945 0.039062-94.449 1.8789-21.918 1.7891-33.129 5.0352-40.949 9.0195-18.816 9.5898-34.113 24.887-43.703 43.703-3.9844 7.8203-7.2305 19.031-9.0195 40.949-1.8398 22.504-1.8789 51.621-1.8789 94.449v420c0 42.828 0.039062 71.945 1.8789 94.449 1.7891 21.922 5.0352 33.129 9.0195 40.949 9.5898 18.816 24.887 34.117 43.703 43.703 7.8203 3.9844 19.031 7.2266 40.949 9.0234 22.504 1.8359 51.621 1.875 94.449 1.875h420c42.828 0 71.945-0.039062 94.449-1.875 21.922-1.7969 33.129-5.0391 40.949-9.0234 18.816-9.5859 34.117-24.887 43.703-43.703 3.9844-7.8203 7.2266-19.027 9.0234-40.949 1.8359-22.504 1.875-51.621 1.875-94.449v-110c0-27.613 22.387-50 50-50s50 22.387 50 50v112.07c0 40.25 0 73.465-2.2109 100.52-2.293 28.105-7.2227 53.941-19.59 78.211-19.176 37.629-49.77 68.223-87.398 87.398-24.27 12.367-50.105 17.297-78.211 19.59-27.059 2.2109-60.273 2.2109-100.52 2.2109h-424.13c-40.246 0-73.465 0-100.52-2.2109-28.105-2.293-53.941-7.2227-78.207-19.59-37.633-19.176-68.23-49.77-87.402-87.398-12.367-24.27-17.293-50.105-19.59-78.211-2.2109-27.059-2.2109-60.273-2.2109-100.52v-424.13c0-40.246 0-73.465 2.2109-100.52 2.2969-28.105 7.2227-53.941 19.586-78.207 19.176-37.633 49.773-68.23 87.406-87.406 24.266-12.363 50.102-17.289 78.207-19.586 27.059-2.2109 60.277-2.2109 100.52-2.2109zm312.07 50c0-27.613 22.387-50 50-50h300c27.613 0 50 22.387 50 50v300c0 27.613-22.387 50-50 50s-50-22.387-50-50v-179.29l-364.64 364.64c-19.527 19.523-51.184 19.523-70.711 0-19.523-19.527-19.523-51.184 0-70.711l364.64-364.64h-179.29c-27.613 0-50-22.387-50-50z"
    fill-rule="evenodd" />
</svg>
