<?xml version="1.0" encoding="UTF-8"?>
<svg version="1.1" viewBox="0 0 1200 1200" xmlns="http://www.w3.org/2000/svg">
  <g fill="currentColor">
    <path
      d="m276 535.92c27.84 16.078 57.961 16.078 108 16.078s80.16 0 108-16.078c18.238-10.559 33.359-25.68 43.922-43.922 16.078-27.84 16.078-57.961 16.078-108s0-80.16-16.078-108c-10.559-18.238-25.68-33.359-43.922-43.922-27.84-16.078-57.961-16.078-108-16.078s-80.16 0-108 16.078c-18.238 10.559-33.359 25.68-43.922 43.922-16.078 27.84-16.078 57.961-16.078 108s0 80.16 16.078 108c10.559 18.238 25.68 33.359 43.922 43.922zm39.238-211.92c2.0391-3.6016 5.1602-6.7188 8.7617-8.7617 5.5195-3.2383 33.238-3.2383 60-3.2383s54.48 0 60 3.2383c3.6016 2.1602 6.7188 5.1602 8.7617 8.7617 3.2383 5.5195 3.2383 33.238 3.2383 60s0 54.48-3.2383 60c-2.0391 3.6016-5.1602 6.7188-8.7617 8.7617-5.5195 3.2383-33.238 3.2383-60 3.2383s-54.48 0-60-3.2383c-3.6016-2.1602-6.7188-5.1602-8.7617-8.7617-3.2383-5.5195-3.2383-33.238-3.2383-60s0-54.48 3.2383-60z" />
    <path
      d="m276 967.92c27.84 16.078 57.961 16.078 108 16.078s80.16 0 108-16.078c18.238-10.559 33.359-25.68 43.922-43.922 16.078-27.84 16.078-57.961 16.078-108s0-80.16-16.078-108c-10.559-18.238-25.68-33.359-43.922-43.922-27.84-16.078-57.961-16.078-108-16.078s-80.16 0-108 16.078c-18.238 10.559-33.359 25.68-43.922 43.922-16.078 27.84-16.078 57.961-16.078 108s0 80.16 16.078 108c10.559 18.238 25.68 33.359 43.922 43.922zm39.238-211.92c2.0391-3.6016 5.1602-6.7188 8.7617-8.7617 5.5195-3.2383 33.238-3.2383 60-3.2383s54.48 0 60 3.2383c3.6016 2.1602 6.7188 5.1602 8.7617 8.7617 3.2383 5.5195 3.2383 33.238 3.2383 60s0 54.48-3.2383 60c-2.0391 3.6016-5.1602 6.7188-8.7617 8.7617-5.5195 3.2383-33.238 3.2383-60 3.2383s-54.48 0-60-3.2383c-3.6016-2.1602-6.7188-5.1602-8.7617-8.7617-3.2383-5.5195-3.2383-33.238-3.2383-60s0-54.48 3.2383-60z" />
    <path
      d="m967.92 276c-10.559-18.238-25.68-33.359-43.922-43.922-27.84-16.078-57.961-16.078-108-16.078s-80.16 0-108 16.078c-18.238 10.559-33.359 25.68-43.922 43.922-16.078 27.84-16.078 57.961-16.078 108s0 80.16 16.078 108c10.559 18.238 25.68 33.359 43.922 43.922 27.84 16.078 57.961 16.078 108 16.078s80.16 0 108-16.078c18.238-10.559 33.359-25.68 43.922-43.922 16.078-27.84 16.078-57.961 16.078-108s0-80.16-16.078-108zm-83.16 168c-2.0391 3.6016-5.1602 6.7188-8.7617 8.7617-5.5195 3.2383-33.238 3.2383-60 3.2383s-54.48 0-60-3.2383c-3.6016-2.1602-6.7188-5.1602-8.7617-8.7617-3.2383-5.5195-3.2383-33.238-3.2383-60s0-54.48 3.2383-60c2.0391-3.6016 5.1602-6.7188 8.7617-8.7617 5.5195-3.2383 33.238-3.2383 60-3.2383s54.48 0 60 3.2383c3.6016 2.1602 6.7188 5.1602 8.7617 8.7617 3.2383 5.5195 3.2383 33.238 3.2383 60s0 54.48-3.2383 60z" />
    <path
      d="m960 696c0-26.52-21.48-48-48-48h-144c-66.121 0-120 53.879-120 120v144c0 26.52 21.48 48 48 48s48-21.48 48-48v-100.08l158.04 158.04c9.3594 9.3594 21.602 14.039 33.961 14.039s24.602-4.6797 33.961-14.039c18.719-18.719 18.719-49.078 0-67.922l-158.04-158.04h100.08c26.52 0 48-21.48 48-48z" />
  </g>
</svg>
