<svg xmlns="http://www.w3.org/2000/svg" xmlns:xlink="http://www.w3.org/1999/xlink" version="1.1" x="0px" y="0px" viewBox="0 0 100 100" enable-background="new 0 0 100 100" xml:space="preserve"><path d="M77.282,29.42c-3.261,0.675-5.611,1.702-7.315,2.772c-3.285-3.457-7.329-6.006-11.603-7.404  c1.232-1.991,1.973-4.486,1.973-7.205c0-6.488-4.18-11.747-9.336-11.747c-5.156,0-9.336,5.259-9.336,11.747  c0,2.699,0.731,5.178,1.947,7.161c-4.318,1.379-8.402,3.925-11.747,7.389c-1.697-1.048-4.023-2.05-7.224-2.713  c-10.768-2.229-13.22,9.858-14.78,10.413c0,0,4.943,1.864,9.759,0.494c0,0,3.995-0.635,6.119,1.215  c-1.841,4.625-2.385,9.643-1.528,14.699c1.19,7.024,3.165,12.992,5.811,17.787c-3.592,1.483-8.535,4.67-9.519,11.152  c0,0,0.791,8.173,5.668,9.491c4.877,1.318,3.823-4.087,5.536-6.459c0,0-0.828-4.235,2.915-7.73  c3.138,3.365,6.834,5.606,10.991,6.629c0.766,2.41,2.429,7.06,3.853,7.06c1.328,0,2.947-4.043,3.821-6.543  c5.387-0.556,10.163-3.041,14.068-7.144c3.741,3.495,2.913,7.728,2.913,7.728c1.713,2.373,0.659,7.777,5.536,6.459  c4.877-1.318,5.668-9.491,5.668-9.491c-0.978-6.437-5.857-9.623-9.442-11.119c2.735-4.877,4.692-10.918,5.676-17.917  c0.692-4.919,0.074-9.88-1.7-14.433c2.069-2.053,6.295-1.383,6.295-1.383c4.816,1.37,9.759-0.494,9.759-0.494  C90.502,39.279,88.05,27.191,77.282,29.42z M47.167,80.284C36.12,77.391,32.284,62.052,31.102,55.073  c-1.03-6.08,0.666-12.108,4.776-16.973c2.5-2.959,5.644-5.172,8.982-6.413c-2.98,4.525-4.295,9.025-3.894,13.446  c0.718,7.925,6.759,12.551,7.848,13.324c0.561,0.46,6.046,5.134,5.862,10.858C54.555,73.045,52.027,76.73,47.167,80.284z   M70.787,55.17c-1.323,9.409-5.185,19.302-12.223,23.504c1.956-2.895,2.994-5.947,3.097-9.134  c0.311-9.626-8.251-16.365-8.616-16.646l-0.203-0.146c-0.044-0.03-4.45-3.096-4.916-8.244c-0.374-4.135,1.81-8.69,6.481-13.553  c4.105,0.885,8.107,3.269,11.159,6.781C69.825,42.631,71.679,48.825,70.787,55.17z"></path></svg>
