<?xml version="1.0" encoding="UTF-8"?>
<svg version="1.1" viewBox="0 0 1200 1200" xmlns="http://www.w3.org/2000/svg">
  <path
    d="m1135.2 986.4-254.4-226.8c124.8-181.2 105.6-430.8-55.199-591.6-181.2-182.4-476.4-182.4-657.6 0-182.4 181.2-182.4 476.4 0 658.8 160.8 160.8 410.4 178.8 591.6 55.199l226.8 253.2c38.398 43.199 105.6 45.602 146.4 3.6016l6-6c40.801-40.801 39.598-108-3.6016-146.4zm-422.4-273.6c-120 120-313.2 120-432 0-120-120-120-313.2 0-432 120-120 313.2-120 432 0 120 120 120 313.2 0 432z" />
</svg>
